# xmcd
#
# Track frame offsets: 
#        150
#        10512
#        28355
#        44792
#        60366
#        78004
#        91020
#        107985
#        118645
#        137333
#        151474
#        165536
#        181711
#        198484
#        221776
#
# Disc length: 3172 seconds
#
# Revision: 0
# Processed by: cddbd v1.5.2PL0 Copyright (c) Steve Scherf et al.
# Submitted via: ExactAudioCopyFreeDBPlugin 1.0
#
DISCID=bd0c620f
DTITLE=群星 - TEST-CD试音极品24CDA
DYEAR=2013
DGENRE=Acid
TTITLE0=康定情歌(琵琶笛子)
TTITLE1=好人一生平安(中胡)
TTITLE2=血染的风采(二胡)
TTITLE3=渴望(古筝)
TTITLE4=敖包相会(中胡)
TTITLE5=十五的月亮(古筝二胡)
TTITLE6=难忘今宵(古筝)
TTITLE7=满山红叶似彩霞(古筝笛子)
TTITLE8=人说山西好风光(琵琶)
TTITLE9=牧羊曲(古筝)
TTITLE10=走西口(二胡)
TTITLE11=天涯歌女(琵琶笛子)
TTITLE12=山丹丹花开红艳艳(二胡)
TTITLE13=美丽的草原我的家(马头琴)
TTITLE14=在那桃花盛开的地方(古筝二胡)
EXTD=
EXTT0=
EXTT1=
EXTT2=
EXTT3=
EXTT4=
EXTT5=
EXTT6=
EXTT7=
EXTT8=
EXTT9=
EXTT10=
EXTT11=
EXTT12=
EXTT13=
EXTT14=
PLAYORDER=
